# xmcd CD database file
#
# Track frame offsets:
#	150
#	11317
#	23552
#	37698
#	51715
#	63445
#	70980
#	89858
#	103039
#	114217
#	126370
#	139589
#	153813
#
# Disc length: 2249 seconds
#
# Revision: 0
# Processed by: cddbd v1.5.2PL0 Copyright (c) Steve Scherf et al.
# Submitted via: CDex 1.70beta2
#
DISCID=a708c70d
DTITLE=Stephen Janetzko - Turnhits fuer Krabbelkids
DYEAR=2009
DGENRE=Kinderlieder
TTITLE0=Alle Kinder sind jetzt da
TTITLE1=Wir gehen durch das tiefe Eis
TTITLE2=Jetzt ist Schneemannzeit
TTITLE3=Helau Helau wir feiern jetzt Karneval 
TTITLE4=Im Zoo da geht es munter zu
TTITLE5=All die kleinen Haeschen
TTITLE6=Das Verkehrslied
TTITLE7=Das kleine Pony Tilly
TTITLE8=Die Eisenbahn die Eisenbahn
TTITLE9=Die Finger gehen jetzt auf Reise
TTITLE10=Heute fallen Regentropfen 
TTITLE11=Riesen und Zwerge
TTITLE12=Das Turnen ist zu Ende
EXTD=YEAR: 2009
EXTT0=
EXTT1=
EXTT2=
EXTT3=
EXTT4=
EXTT5=
EXTT6=
EXTT7=
EXTT8=
EXTT9=
EXTT10=
EXTT11=
EXTT12=
PLAYORDER=
